<svg xmlns="http://www.w3.org/2000/svg" width="31.376" height="31.453" viewBox="0 0 31.376 31.453">
  <g id="Grupo_1" data-name="Grupo 1" transform="translate(-199 -1552)">
    <path id="Trazado_11419" data-name="Trazado 11419" d="M745.975,400.523l2.255-8.413a15.568,15.568,0,1,1,6.2,6.148Zm8.877-5.418.533.317a12.639,12.639,0,1,0-4.325-4.285l.326.536-1.259,4.7Z" transform="translate(-546.975 1182.93)" fill="#fff"/>
    <path id="Trazado_11420" data-name="Trazado 11420" d="M768.636,387.819a2.615,2.615,0,0,0-2.225-.5c-.578.236-.947,1.141-1.321,1.6a.554.554,0,0,1-.716.155,10.082,10.082,0,0,1-5.029-4.307.618.618,0,0,1,.078-.843,3.391,3.391,0,0,0,.913-1.483,3.244,3.244,0,0,0-.408-1.756,4.164,4.164,0,0,0-1.3-1.953,1.776,1.776,0,0,0-1.928.286,3.917,3.917,0,0,0-1.357,3.1,4.411,4.411,0,0,0,.122.984,8.181,8.181,0,0,0,.944,2.176,17.411,17.411,0,0,0,.986,1.5,15.21,15.21,0,0,0,4.276,3.969,12.929,12.929,0,0,0,2.666,1.269,5.926,5.926,0,0,0,3.1.49,3.76,3.76,0,0,0,2.815-2.094,1.815,1.815,0,0,0,.13-1.069C770.227,388.612,769.231,388.175,768.636,387.819Z" transform="translate(-548.016 1181.707)" fill="#fff" fill-rule="evenodd"/>
  </g>
</svg>
